<?xml version="1.0" encoding="utf-8"?>

<!DOCTYPE svg PUBLIC "-//W3C//DTD SVG 1.1//EN" "http://www.w3.org/Graphics/SVG/1.1/DTD/svg11.dtd">
<svg version="1.1" xmlns="http://www.w3.org/2000/svg" xmlns:xlink="http://www.w3.org/1999/xlink"
	 id="Awesome"
	 x="0px" y="0px"
	 width="512px" height="512px"
	 viewBox="0 0 512 512"
	 enable-background="new 0 0 512 512"
	 xml:space="preserve"
	 >
	<g id="AwesomeSmile">
		<circle fill="#FFFFFF" cx="255.991" cy="255.992" r="255.992"/>
		<circle fill="#E2E2E2" cx="255.991" cy="255.991" r="233.331"/>
		<path fill="#FFFFFF" d="M64.873,294.021h17.869c17.74,261.102,393.908,183.805,315.968-14.45H64.872L64.873,294.021L64.873,294.021z"/>
		<path fill="#E2E2E2" d="M388.778,294.408L98.074,294.42C126.93,532.116,436.098,457.674,388.778,294.408z"/>
		<path fill="#F2F2F2" d="M352.933,410.817c-38.422-66.911-137.62-48.952-151.248,27.265 C248.182,455.587,315.961,444.368,352.933,410.817z"/>
		<path fill="#FFFFFF" d="M278.694,143.964c-15.3,19.485-28.179,50.528-12.986,94.141l140.058,0.014 c10.568-32.968,7.54-78.798-20.753-102.877C352.691,107.731,305.563,109.749,278.694,143.964L278.694,143.964z"/>
		<path fill="#FFFFFF" d="M96.802,117.082C47.97,131.904,44.876,195.885,55.94,238.104l120.966-0.041 c15.032-41.962,5.056-83.625-29.784-112.069C136.569,117.379,115.696,111.347,96.802,117.082L96.802,117.082z"/>
		<path fill="#F2F2F2" d="M276.171,223.655H394.26c6.101-19.743,3.634-37.682-0.498-50.324c-6.166,8.034-13.558,10.383-21.924,11.459 c-14.525,1.933-26.408-11.623-26.408-25.411l-0.127-1.011c1.411-13.47,3.595-13.737,13.58-22.906 c-3.85-2.578-12.065-4.982-18.436-4.982C286.93,129.443,260.951,189.333,276.171,223.655L276.171,223.655z"/>
		<path fill="#F2F2F2" d="M67.4,223.655l99.28,0.017c1.661-14.197,5.435-33.4-1.62-48.847 c-17.288,19.636-47.905,10.023-47.834-18.436c0-12.801,6.856-15.465,14.45-22.422C76.832,109.214,54.528,182.113,67.4,223.655 L67.4,223.655z"/>
	</g>
</svg>
